<svg width="1093" height="698" viewBox="0 0 1093 698" fill="none" xmlns="http://www.w3.org/2000/svg">
<rect width="1093" height="698" rx="15" fill="#09090B"/>
<path d="M261.789 325L275.229 257.8H300.189C308.061 257.8 314.141 259.528 318.429 262.984C322.717 266.44 324.861 271.272 324.861 277.48C324.861 283.176 323.581 288.072 321.021 292.168C318.525 296.2 314.909 299.304 310.173 301.48C305.437 303.592 299.837 304.648 293.373 304.648H271.293L276.381 300.04L271.389 325H261.789ZM276.189 301.096L272.829 296.296H293.565C300.413 296.296 305.725 294.792 309.501 291.784C313.341 288.712 315.261 284.232 315.261 278.344C315.261 274.312 313.885 271.272 311.133 269.224C308.381 267.176 304.445 266.152 299.325 266.152H279.069L284.157 261.256L276.189 301.096ZM327.947 325L338.027 274.12H346.859L343.979 288.904L343.019 285.256C345.387 280.968 348.395 277.96 352.043 276.232C355.691 274.504 360.203 273.64 365.579 273.64L363.851 282.568C363.467 282.504 363.083 282.472 362.699 282.472C362.315 282.472 361.899 282.472 361.451 282.472C356.395 282.472 352.203 283.848 348.875 286.6C345.611 289.352 343.403 293.672 342.251 299.56L337.163 325H327.947ZM390.005 325.576C385.141 325.576 380.917 324.68 377.333 322.888C373.813 321.032 371.061 318.472 369.077 315.208C367.093 311.88 366.101 308.008 366.101 303.592C366.101 297.832 367.381 292.712 369.941 288.232C372.501 283.688 376.021 280.136 380.501 277.576C385.045 274.952 390.197 273.64 395.957 273.64C400.757 273.64 404.949 274.536 408.533 276.328C412.117 278.12 414.869 280.648 416.789 283.912C418.773 287.176 419.765 291.048 419.765 295.528C419.765 301.288 418.485 306.44 415.925 310.984C413.365 315.464 409.845 319.016 405.365 321.64C400.949 324.264 395.829 325.576 390.005 325.576ZM390.581 317.512C394.421 317.512 397.845 316.584 400.853 314.728C403.861 312.872 406.197 310.344 407.861 307.144C409.589 303.88 410.453 300.168 410.453 296.008C410.453 291.528 409.141 288.04 406.517 285.544C403.893 282.984 400.149 281.704 395.285 281.704C391.509 281.704 388.117 282.632 385.109 284.488C382.101 286.28 379.733 288.808 378.005 292.072C376.277 295.272 375.413 298.984 375.413 303.208C375.413 307.624 376.725 311.112 379.349 313.672C381.973 316.232 385.717 317.512 390.581 317.512ZM424.96 344.2C422.528 344.2 420.128 343.784 417.76 342.952C415.392 342.184 413.536 341.096 412.192 339.688L416.992 332.872C418.08 333.96 419.36 334.792 420.832 335.368C422.24 336.008 423.84 336.328 425.632 336.328C427.744 336.328 429.632 335.752 431.296 334.6C433.024 333.512 434.784 331.56 436.576 328.744L441.376 321.352L442.432 320.296L471.52 274.12H480.832L444.736 330.568C442.496 334.024 440.384 336.744 438.4 338.728C436.416 340.712 434.336 342.12 432.16 342.952C430.048 343.784 427.648 344.2 424.96 344.2ZM439.648 326.632L426.88 274.12H436.096L446.944 319.432L439.648 326.632ZM502.235 325.576C497.243 325.576 492.923 324.68 489.275 322.888C485.627 321.032 482.811 318.472 480.827 315.208C478.843 311.88 477.851 307.976 477.851 303.496C477.851 297.736 479.099 292.616 481.595 288.136C484.091 283.656 487.483 280.136 491.771 277.576C496.123 274.952 501.051 273.64 506.555 273.64C511.163 273.64 515.163 274.536 518.555 276.328C521.947 278.056 524.571 280.552 526.427 283.816C528.347 287.08 529.307 291.016 529.307 295.624C529.307 296.776 529.243 297.96 529.115 299.176C528.987 300.328 528.827 301.416 528.635 302.44H484.571L485.723 295.72H524.219L520.475 298.024C521.051 294.44 520.795 291.432 519.707 289C518.619 286.504 516.891 284.616 514.523 283.336C512.219 281.992 509.435 281.32 506.171 281.32C502.331 281.32 498.939 282.248 495.995 284.104C493.115 285.896 490.875 288.424 489.275 291.688C487.675 294.888 486.875 298.664 486.875 303.016C486.875 307.624 488.187 311.208 490.811 313.768C493.499 316.264 497.563 317.512 503.003 317.512C506.203 317.512 509.179 317 511.931 315.976C514.683 314.888 516.955 313.448 518.747 311.656L522.683 318.28C520.251 320.648 517.211 322.472 513.563 323.752C509.915 324.968 506.139 325.576 502.235 325.576ZM560.731 325.576C555.803 325.576 551.515 324.68 547.867 322.888C544.283 321.032 541.499 318.472 539.515 315.208C537.531 311.88 536.539 308.008 536.539 303.592C536.539 297.832 537.819 292.712 540.379 288.232C542.939 283.688 546.491 280.136 551.035 277.576C555.579 274.952 560.731 273.64 566.491 273.64C571.419 273.64 575.643 274.568 579.163 276.424C582.683 278.216 585.435 280.968 587.419 284.68L579.643 289C578.363 286.504 576.539 284.68 574.171 283.528C571.867 282.312 569.083 281.704 565.819 281.704C561.979 281.704 558.555 282.632 555.547 284.488C552.539 286.28 550.171 288.808 548.443 292.072C546.715 295.272 545.851 298.984 545.851 303.208C545.851 307.624 547.163 311.112 549.787 313.672C552.475 316.232 556.251 317.512 561.115 317.512C564.123 317.512 566.939 316.904 569.563 315.688C572.251 314.472 574.491 312.68 576.283 310.312L583.003 315.112C580.699 318.376 577.563 320.936 573.595 322.792C569.627 324.648 565.339 325.576 560.731 325.576ZM609.607 325.576C606.535 325.576 603.879 324.904 601.639 323.56C599.463 322.216 597.895 320.296 596.935 317.8C596.039 315.304 595.911 312.36 596.551 308.968L605.767 262.984H614.983L605.767 308.776C605.319 311.528 605.575 313.736 606.535 315.4C607.559 317 609.447 317.8 612.199 317.8C613.479 317.8 614.759 317.608 616.039 317.224C617.319 316.776 618.471 316.168 619.495 315.4L621.415 322.408C619.687 323.624 617.767 324.456 615.655 324.904C613.607 325.352 611.591 325.576 609.607 325.576ZM593.383 281.704L594.823 274.12H627.367L625.831 281.704H593.383ZM654.005 325.576C649.141 325.576 644.917 324.68 641.333 322.888C637.813 321.032 635.061 318.472 633.077 315.208C631.093 311.88 630.101 308.008 630.101 303.592C630.101 297.832 631.381 292.712 633.941 288.232C636.501 283.688 640.021 280.136 644.501 277.576C649.045 274.952 654.197 273.64 659.957 273.64C664.757 273.64 668.949 274.536 672.533 276.328C676.117 278.12 678.869 280.648 680.789 283.912C682.773 287.176 683.765 291.048 683.765 295.528C683.765 301.288 682.485 306.44 679.925 310.984C677.365 315.464 673.845 319.016 669.365 321.64C664.949 324.264 659.829 325.576 654.005 325.576ZM654.581 317.512C658.421 317.512 661.845 316.584 664.853 314.728C667.861 312.872 670.197 310.344 671.861 307.144C673.589 303.88 674.453 300.168 674.453 296.008C674.453 291.528 673.141 288.04 670.517 285.544C667.893 282.984 664.149 281.704 659.285 281.704C655.509 281.704 652.117 282.632 649.109 284.488C646.101 286.28 643.733 288.808 642.005 292.072C640.277 295.272 639.413 298.984 639.413 303.208C639.413 307.624 640.725 311.112 643.349 313.672C645.973 316.232 649.717 317.512 654.581 317.512ZM741.204 325.576C736.212 325.576 731.892 324.68 728.244 322.888C724.596 321.032 721.78 318.472 719.796 315.208C717.812 311.88 716.82 307.976 716.82 303.496C716.82 297.736 718.068 292.616 720.564 288.136C723.06 283.656 726.452 280.136 730.74 277.576C735.092 274.952 740.02 273.64 745.524 273.64C750.132 273.64 754.132 274.536 757.524 276.328C760.916 278.056 763.54 280.552 765.396 283.816C767.316 287.08 768.276 291.016 768.276 295.624C768.276 296.776 768.212 297.96 768.084 299.176C767.956 300.328 767.796 301.416 767.604 302.44H723.54L724.692 295.72H763.188L759.444 298.024C760.02 294.44 759.764 291.432 758.676 289C757.588 286.504 755.86 284.616 753.492 283.336C751.188 281.992 748.404 281.32 745.14 281.32C741.3 281.32 737.908 282.248 734.964 284.104C732.084 285.896 729.844 288.424 728.244 291.688C726.644 294.888 725.844 298.664 725.844 303.016C725.844 307.624 727.156 311.208 729.78 313.768C732.468 316.264 736.532 317.512 741.972 317.512C745.172 317.512 748.148 317 750.9 315.976C753.652 314.888 755.924 313.448 757.716 311.656L761.652 318.28C759.22 320.648 756.18 322.472 752.532 323.752C748.884 324.968 745.108 325.576 741.204 325.576ZM811.699 273.64C816.179 273.64 819.923 274.536 822.931 276.328C825.939 278.12 828.019 280.744 829.171 284.2C830.387 287.592 830.515 291.688 829.555 296.488L823.891 325H814.675L820.339 296.488C821.299 291.88 820.851 288.296 818.995 285.736C817.139 283.176 813.811 281.896 809.011 281.896C804.083 281.896 799.987 283.24 796.723 285.928C793.459 288.552 791.283 292.616 790.195 298.12L784.819 325H775.603L785.683 274.12H794.515L791.635 288.712L789.907 284.776C792.339 280.936 795.411 278.12 799.123 276.328C802.899 274.536 807.091 273.64 811.699 273.64ZM299.992 442L313.432 374.8H339.736C346.52 374.8 352.312 375.952 357.112 378.256C361.912 380.496 365.56 383.664 368.056 387.76C370.616 391.856 371.896 396.72 371.896 402.352C371.896 408.24 370.904 413.648 368.92 418.576C366.936 423.44 364.088 427.632 360.376 431.152C356.728 434.608 352.344 437.296 347.224 439.216C342.104 441.072 336.376 442 330.04 442H299.992ZM311.224 433.648H330.328C336.984 433.648 342.68 432.336 347.416 429.712C352.152 427.024 355.8 423.376 358.36 418.768C360.92 414.096 362.2 408.816 362.2 402.928C362.2 398.896 361.336 395.408 359.608 392.464C357.88 389.456 355.256 387.152 351.736 385.552C348.28 383.952 343.96 383.152 338.776 383.152H321.304L311.224 433.648ZM402.345 442.576C397.353 442.576 393.033 441.68 389.385 439.888C385.737 438.032 382.921 435.472 380.937 432.208C378.953 428.88 377.961 424.976 377.961 420.496C377.961 414.736 379.209 409.616 381.705 405.136C384.201 400.656 387.593 397.136 391.881 394.576C396.233 391.952 401.161 390.64 406.665 390.64C411.273 390.64 415.273 391.536 418.665 393.328C422.057 395.056 424.681 397.552 426.537 400.816C428.457 404.08 429.417 408.016 429.417 412.624C429.417 413.776 429.353 414.96 429.225 416.176C429.097 417.328 428.937 418.416 428.745 419.44H384.681L385.833 412.72H424.329L420.585 415.024C421.161 411.44 420.905 408.432 419.817 406C418.729 403.504 417.001 401.616 414.633 400.336C412.329 398.992 409.545 398.32 406.281 398.32C402.441 398.32 399.049 399.248 396.105 401.104C393.225 402.896 390.985 405.424 389.385 408.688C387.785 411.888 386.984 415.664 386.984 420.016C386.984 424.624 388.297 428.208 390.921 430.768C393.609 433.264 397.673 434.512 403.113 434.512C406.313 434.512 409.289 434 412.041 432.976C414.793 431.888 417.065 430.448 418.857 428.656L422.792 435.28C420.361 437.648 417.321 439.472 413.673 440.752C410.025 441.968 406.249 442.576 402.345 442.576ZM452.776 442.576C448.488 442.576 444.424 442.032 440.584 440.944C436.808 439.792 433.896 438.384 431.848 436.72L435.976 429.424C437.96 430.96 440.52 432.208 443.656 433.168C446.856 434.128 450.184 434.608 453.64 434.608C458.056 434.608 461.384 433.936 463.624 432.592C465.864 431.248 466.984 429.424 466.984 427.12C466.984 425.456 466.312 424.208 464.968 423.376C463.624 422.48 461.864 421.808 459.688 421.36C457.576 420.848 455.304 420.368 452.872 419.92C450.44 419.408 448.168 418.704 446.056 417.808C443.944 416.912 442.184 415.632 440.776 413.968C439.432 412.24 438.76 409.968 438.76 407.152C438.76 403.76 439.72 400.848 441.64 398.416C443.56 395.92 446.248 394 449.704 392.656C453.16 391.312 457.192 390.64 461.8 390.64C465.128 390.64 468.392 391.056 471.592 391.888C474.856 392.656 477.512 393.776 479.56 395.248L475.912 402.544C473.8 401.072 471.432 400.048 468.808 399.472C466.184 398.832 463.56 398.512 460.936 398.512C456.648 398.512 453.416 399.248 451.24 400.72C449.064 402.128 447.976 403.92 447.976 406.096C447.976 407.76 448.648 409.072 449.992 410.032C451.336 410.928 453.064 411.632 455.176 412.144C457.352 412.656 459.624 413.168 461.992 413.68C464.424 414.128 466.696 414.8 468.808 415.696C470.984 416.528 472.744 417.776 474.088 419.44C475.432 421.04 476.104 423.248 476.104 426.064C476.104 429.584 475.112 432.592 473.128 435.088C471.208 437.52 468.488 439.376 464.968 440.656C461.448 441.936 457.384 442.576 452.776 442.576ZM507.206 442.576C502.918 442.576 499.078 441.712 495.686 439.984C492.294 438.192 489.606 435.664 487.622 432.4C485.702 429.136 484.742 425.2 484.742 420.592C484.742 416.24 485.446 412.24 486.854 408.592C488.326 404.944 490.342 401.776 492.902 399.088C495.526 396.4 498.598 394.32 502.118 392.848C505.638 391.376 509.446 390.64 513.542 390.64C517.958 390.64 521.702 391.408 524.774 392.944C527.846 394.48 530.214 396.752 531.878 399.76C533.542 402.704 534.374 406.32 534.374 410.608C534.374 416.88 533.286 422.448 531.11 427.312C528.934 432.112 525.798 435.856 521.702 438.544C517.67 441.232 512.838 442.576 507.206 442.576ZM509.222 434.512C513.062 434.512 516.486 433.584 519.494 431.728C522.502 429.872 524.838 427.344 526.502 424.144C528.23 420.88 529.094 417.168 529.094 413.008C529.094 408.528 527.782 405.04 525.158 402.544C522.534 399.984 518.79 398.704 513.926 398.704C510.15 398.704 506.758 399.632 503.75 401.488C500.742 403.28 498.374 405.808 496.646 409.072C494.918 412.272 494.054 415.984 494.054 420.208C494.054 424.624 495.366 428.112 497.99 430.672C500.614 433.232 504.358 434.512 509.222 434.512ZM523.91 442L526.598 428.848L529.67 417.04L530.918 404.944L533.606 391.12H542.822L532.742 442H523.91ZM550.275 442L560.355 391.12H569.187L566.307 405.904L565.347 402.256C567.715 397.968 570.723 394.96 574.371 393.232C578.019 391.504 582.531 390.64 587.907 390.64L586.179 399.568C585.795 399.504 585.411 399.472 585.027 399.472C584.643 399.472 584.227 399.472 583.779 399.472C578.723 399.472 574.531 400.848 571.203 403.6C567.939 406.352 565.731 410.672 564.579 416.56L559.491 442H550.275ZM588.994 442L599.074 391.12H607.906L605.026 405.904L604.066 402.256C606.434 397.968 609.442 394.96 613.09 393.232C616.738 391.504 621.25 390.64 626.626 390.64L624.898 399.568C624.514 399.504 624.13 399.472 623.746 399.472C623.362 399.472 622.946 399.472 622.498 399.472C617.442 399.472 613.25 400.848 609.922 403.6C606.658 406.352 604.45 410.672 603.298 416.56L598.21 442H588.994ZM651.052 442.576C646.188 442.576 641.964 441.68 638.38 439.888C634.86 438.032 632.108 435.472 630.124 432.208C628.14 428.88 627.148 425.008 627.148 420.592C627.148 414.832 628.428 409.712 630.988 405.232C633.548 400.688 637.068 397.136 641.548 394.576C646.092 391.952 651.244 390.64 657.004 390.64C661.804 390.64 665.996 391.536 669.58 393.328C673.164 395.12 675.916 397.648 677.836 400.912C679.82 404.176 680.812 408.048 680.812 412.528C680.812 418.288 679.532 423.44 676.972 427.984C674.412 432.464 670.892 436.016 666.412 438.64C661.996 441.264 656.876 442.576 651.052 442.576ZM651.628 434.512C655.468 434.512 658.892 433.584 661.9 431.728C664.908 429.872 667.244 427.344 668.908 424.144C670.636 420.88 671.5 417.168 671.5 413.008C671.5 408.528 670.188 405.04 667.564 402.544C664.94 399.984 661.196 398.704 656.332 398.704C652.556 398.704 649.164 399.632 646.156 401.488C643.148 403.28 640.78 405.808 639.052 409.072C637.324 412.272 636.46 415.984 636.46 420.208C636.46 424.624 637.772 428.112 640.396 430.672C643.02 433.232 646.764 434.512 651.628 434.512ZM688.182 442L702.39 370.768H711.606L697.398 442H688.182ZM714.994 442L729.202 370.768H738.418L724.21 442H714.994ZM765.615 442.576C760.751 442.576 756.527 441.68 752.943 439.888C749.423 438.032 746.671 435.472 744.687 432.208C742.703 428.88 741.711 425.008 741.711 420.592C741.711 414.832 742.991 409.712 745.551 405.232C748.111 400.688 751.631 397.136 756.111 394.576C760.655 391.952 765.807 390.64 771.567 390.64C776.367 390.64 780.559 391.536 784.143 393.328C787.727 395.12 790.479 397.648 792.399 400.912C794.383 404.176 795.375 408.048 795.375 412.528C795.375 418.288 794.095 423.44 791.535 427.984C788.975 432.464 785.455 436.016 780.975 438.64C776.559 441.264 771.439 442.576 765.615 442.576ZM766.191 434.512C770.031 434.512 773.455 433.584 776.463 431.728C779.471 429.872 781.807 427.344 783.471 424.144C785.199 420.88 786.062 417.168 786.062 413.008C786.062 408.528 784.751 405.04 782.127 402.544C779.503 399.984 775.759 398.704 770.895 398.704C767.119 398.704 763.727 399.632 760.719 401.488C757.711 403.28 755.343 405.808 753.615 409.072C751.887 412.272 751.023 415.984 751.023 420.208C751.023 424.624 752.335 428.112 754.959 430.672C757.583 433.232 761.327 434.512 766.191 434.512Z" fill="white"/>
</svg>
